<svg width="48" height="48" viewBox="0 0 48 48" fill="none" xmlns="http://www.w3.org/2000/svg">
<rect width="48" height="48" rx="12" fill="#9378FF"/>
<path d="M39.3481 39.242C38.2273 38.7828 36.3944 38.4335 35.9104 37.1647C35.9104 37.1647 35.8844 33.7963 36.2416 31.8937L36.4204 30.3847C36.4204 30.3847 36.801 29.1382 35.605 28.6566L35.3758 28.5032C35.3758 28.5032 31.5573 25.7255 29.7234 24.939C29.7234 24.939 30.8958 23.8448 31.6337 21.701C31.6337 21.701 31.7089 21.2639 32.1177 21.701C32.5243 22.139 33.0085 21.8323 33.1612 21.7232C33.3139 21.6133 34.4842 21.5042 37.2347 19.5359C37.2347 19.5359 37.7693 19.1867 38.0748 19.1644C38.3802 19.1422 39.3731 18.9019 39.1956 18.2237C39.017 17.5454 38.0489 17.1295 38.0489 17.1295H37.1067C37.1067 17.1295 36.4958 17.6979 36.4958 18.0489C36.4958 18.3992 36.115 18.6607 36.0891 18.7264C36.0633 18.792 34.4842 19.6458 33.5419 19.6458C33.5419 19.6458 33.8226 18.158 33.0849 16.9992L32.8806 15.3719C32.8806 15.3719 32.8042 15.0097 31.7606 14.4617L31.7866 13.6309H32.83C32.83 13.6309 33.1354 13.4997 33.2625 13.2372C33.3894 12.9747 33.6454 11.6181 33.6454 11.6181L33.4152 9.16942C33.4152 9.16942 33.1614 7.70379 30.5647 8.0541C27.9681 8.40331 28.1963 10.3726 28.1963 10.3726C28.1963 10.3726 28.0693 11.2689 29.3924 12.2531L28.9094 12.9102C28.9094 12.9102 27.4584 12.7781 26.9238 13.1929C26.3893 13.6087 22.8245 15.5992 22.0102 16.8459C22.0102 16.8459 21.2207 17.5472 21.8064 18.2681C22.3916 18.9898 25.1156 22.0069 25.1156 22.0069C25.1156 22.0069 23.9705 23.3847 23.2064 24.0842C22.4433 24.7857 22.163 25.9443 22.035 26.2504C21.908 26.5571 20.9152 27.4748 20.5839 27.6726C20.5839 27.6726 21.246 28.0875 21.5515 28.263C21.5515 28.263 19.8208 30.3625 19.3362 31.1277C18.8526 31.8937 18.1912 31.9149 18.1142 31.9382C18.0378 31.9584 15.3906 31.5869 13.7105 32.8557C12.0297 34.1246 10.5023 33.5562 10.5023 33.5562C10.5023 33.5562 8.87269 33.1838 8.74576 34.5182C8.61841 35.8516 8.51661 35.9404 8.26232 36.5521C8.00747 37.1648 7.82887 38.3448 8.26232 38.5647C8.69479 38.7829 9.30573 37.6019 9.30573 37.6019C9.30573 37.6019 11.1385 35.6557 11.3935 35.5022C11.6479 35.3488 17.1472 34.3221 17.1472 34.3221C17.1472 34.3221 18.8274 34.1687 19.5148 34.2335C20.2027 34.2991 20.9664 33.9054 20.9664 33.9054L21.1697 33.6874C21.1697 33.6874 24.607 31.8715 26.3894 29.6408C26.3894 29.6408 28.2222 29.7498 29.4442 30.0991L29.5712 29.4004C29.5712 29.4004 31.2266 30.1711 33.5425 30.2996C33.5425 30.2996 32.8046 31.9804 33.1875 33.6874C33.5682 35.3932 34.2815 36.4864 34.1287 37.5805C33.9759 38.6738 33.8995 39.0461 33.9759 39.3955C34.0523 39.7448 36.1154 39.7679 36.4456 39.7679C36.777 39.7679 38.0753 40.1394 39.806 39.9424C39.8053 39.9424 40.4679 39.7022 39.3481 39.242ZM25.6754 19.8639C24.7848 19.1209 24.3519 17.7431 24.3519 17.7431C24.8612 17.502 26.2617 16.54 26.2617 16.54C26.4144 18.0277 25.6754 19.8639 25.6754 19.8639Z" fill="#F5F5F5"/>
</svg>
