<svg width="30" height="30" viewBox="0 0 30 30" fill="none" xmlns="http://www.w3.org/2000/svg">
<rect width="30" height="30" rx="15" fill="#D9D9D9"/>
<path d="M15.1519 6.75C12.8679 6.75 12.5832 6.76103 11.6893 6.79884C10.7918 6.84296 10.1847 6.98213 9.64901 7.1901C9.09652 7.40648 8.62595 7.69375 8.16117 8.16117C7.69323 8.62595 7.40333 9.09652 7.1901 9.64901C6.98213 10.1847 6.84296 10.7918 6.79884 11.6893C6.7584 12.5837 6.75 12.8679 6.75 15.1519C6.75 17.4359 6.76103 17.7205 6.79884 18.6144C6.84296 19.5093 6.98213 20.1191 7.1901 20.6547C7.40648 21.2072 7.69375 21.6778 8.16117 22.1426C8.62595 22.6105 9.09652 22.9004 9.64901 23.1136C10.1847 23.319 10.7944 23.4608 11.6893 23.5049C12.5837 23.5453 12.8679 23.5538 15.1519 23.5538C17.4359 23.5538 17.7205 23.5427 18.6144 23.5049C19.5093 23.4608 20.1191 23.3185 20.6547 23.1136C21.2072 22.8973 21.6778 22.61 22.1426 22.1426C22.6105 21.6778 22.9004 21.2099 23.1136 20.6547C23.319 20.1191 23.4608 19.5093 23.5049 18.6144C23.5453 17.72 23.5537 17.4359 23.5537 15.1519C23.5537 12.8679 23.5427 12.5832 23.5049 11.6893C23.4608 10.7944 23.3185 10.1815 23.1136 9.64901C22.8973 9.09652 22.61 8.62595 22.1426 8.16117C21.6778 7.69323 21.2099 7.40333 20.6547 7.1901C20.1191 6.98213 19.5093 6.84296 18.6144 6.79884C17.72 6.7584 17.4359 6.75 15.1519 6.75V6.75ZM15.1519 8.26253C17.3949 8.26253 17.6628 8.27356 18.5493 8.31137C19.367 8.34971 19.8123 8.48625 20.108 8.60179C20.5024 8.75462 20.7782 8.93529 21.0765 9.23044C21.369 9.52297 21.5497 9.80184 21.7025 10.1962C21.818 10.4919 21.9546 10.9373 21.9929 11.755C22.0307 12.6415 22.0417 12.9099 22.0417 15.1524C22.0417 17.3949 22.0307 17.6633 21.9898 18.5498C21.9456 19.3675 21.8091 19.8129 21.6941 20.1086C21.5349 20.503 21.3574 20.7787 21.0644 21.077C20.7687 21.3695 20.4872 21.5502 20.0959 21.703C19.8039 21.8185 19.3523 21.9551 18.5314 21.9934C17.6402 22.0312 17.3776 22.0423 15.1288 22.0423C12.8799 22.0423 12.6179 22.0312 11.7256 21.9903C10.9079 21.9462 10.4567 21.8096 10.1611 21.6946C9.76192 21.5355 9.4883 21.358 9.19525 21.0649C8.89957 20.7692 8.71156 20.4877 8.56661 20.0965C8.44897 19.8045 8.31452 19.3528 8.27093 18.532C8.24099 17.6512 8.22681 17.3781 8.22681 15.1398C8.22681 12.9025 8.24099 12.6289 8.27093 11.7371C8.31452 10.9163 8.44897 10.4657 8.56661 10.1726C8.71156 9.77295 8.9001 9.49986 9.19525 9.20418C9.48778 8.91165 9.76192 8.72259 10.1611 8.57449C10.4567 8.45947 10.8968 8.32292 11.7177 8.28196C12.6089 8.24992 12.8715 8.23837 15.1172 8.23837L15.1519 8.26253ZM15.1519 10.8396C12.767 10.8396 10.8385 12.7707 10.8385 15.1529C10.8385 17.5378 12.7696 19.4663 15.1519 19.4663C17.5367 19.4663 19.4652 17.5352 19.4652 15.1529C19.4652 12.7681 17.5341 10.8396 15.1519 10.8396ZM15.1519 17.9537C13.6036 17.9537 12.3511 16.7012 12.3511 15.1529C12.3511 13.6047 13.6036 12.3521 15.1519 12.3521C16.7001 12.3521 17.9527 13.6047 17.9527 15.1529C17.9527 16.7012 16.7001 17.9537 15.1519 17.9537ZM20.6474 10.6673C20.6474 11.2256 20.1931 11.6762 19.6375 11.6762C19.0792 11.6762 18.6286 11.2251 18.6286 10.6673C18.6286 10.1122 19.0823 9.66056 19.6375 9.66056C20.1926 9.66056 20.6474 10.1122 20.6474 10.6673Z" fill="black"/>
</svg>
