<svg width="227" height="533" viewBox="0 0 227 533" fill="none" xmlns="http://www.w3.org/2000/svg">
<path d="M10.0989 520.04C26.9995 512.491 54.6073 506.834 61.9908 485.747C61.9908 485.747 62.6494 429.653 57.4256 397.935L54.8559 372.79C54.8559 372.79 49.2274 351.996 67.2622 344.082L70.7224 341.547C70.7224 341.547 128.4 295.623 156.057 282.687C156.057 282.687 138.502 264.361 127.57 228.594C127.57 228.594 126.473 221.307 120.287 228.551C114.134 235.81 106.874 230.658 104.584 228.829C102.296 226.985 84.6946 225.064 43.464 192.043C43.464 192.043 35.4485 186.18 30.8528 185.782C26.2594 185.385 11.3391 181.296 14.0635 170.018C16.8048 158.737 31.4055 151.896 31.4055 151.896L45.5821 151.979C45.5821 151.979 54.7296 161.498 54.7017 167.344C54.6739 173.178 60.3828 177.567 60.7664 178.662C61.1499 179.757 84.8423 194.115 99.0211 194.198C99.0211 194.198 94.9159 169.395 106.108 150.163L109.312 123.08C109.312 123.08 110.49 117.055 126.236 108.02L125.911 94.1822L110.211 94.0904C110.211 94.0904 105.626 91.8779 103.735 87.4953C101.846 83.1128 98.1018 60.4981 98.1018 60.4981L101.759 19.7376C101.759 19.7376 105.696 -4.64835 144.739 1.41392C183.783 7.45801 180.193 40.2334 180.193 40.2334C180.193 40.2334 182.032 55.1727 162.045 71.4471L169.261 82.4321C169.261 82.4321 191.104 80.3599 199.115 87.3155C207.125 94.2872 260.606 127.75 272.759 148.583C272.759 148.583 284.583 160.333 275.713 172.286C266.85 184.254 225.623 234.261 225.623 234.261C225.623 234.261 242.743 257.308 254.185 269.025C265.612 280.774 269.737 300.094 271.639 305.202C273.525 310.322 288.391 325.693 293.36 329.014C293.36 329.014 283.365 335.867 278.754 338.763C278.754 338.763 304.629 373.88 311.859 386.665C319.075 399.464 329.026 399.876 330.182 400.271C331.33 400.615 371.191 394.66 396.372 415.938C421.561 437.217 444.589 427.885 444.589 427.885C444.589 427.885 469.139 421.827 470.943 444.061C472.753 466.279 474.278 467.766 478.056 477.976C481.842 488.203 484.435 507.87 477.896 511.494C471.371 515.09 462.272 495.367 462.272 495.367C462.272 495.367 434.849 462.795 431.024 460.217C427.208 457.639 344.543 440.058 344.543 440.058C344.543 440.058 319.274 437.355 308.925 438.373C298.569 439.405 287.109 432.781 287.109 432.781L284.067 429.133C284.067 429.133 232.491 398.589 205.849 361.283C205.849 361.283 178.262 362.936 159.847 368.646L157.993 357C157.993 357 133.022 369.689 98.166 371.625C98.166 371.625 109.135 399.682 103.238 428.076C97.3746 456.451 86.5549 474.594 88.7666 492.829C90.9784 511.049 92.0982 517.257 90.9211 523.068C89.744 528.879 58.6992 529.082 53.7301 529.053C48.7439 529.023 29.1797 535.097 3.15346 531.664C3.16411 531.664 -6.78697 527.606 10.0989 520.04ZM217.369 198.522C230.83 186.227 237.453 163.32 237.453 163.32C229.809 159.259 208.813 143.115 208.813 143.115C206.396 167.877 217.369 198.522 217.369 198.522Z" fill="url(#paint0_linear_192_650)"/>
<defs>
<linearGradient id="paint0_linear_192_650" x1="243.522" y1="1.09037" x2="240.407" y2="534.01" gradientUnits="userSpaceOnUse">
<stop stop-color="#5E4BCB"/>
<stop offset="1" stop-color="#D9D9D9" stop-opacity="0"/>
</linearGradient>
</defs>
</svg>
