<svg width="31" height="30" viewBox="0 0 31 30" fill="none" xmlns="http://www.w3.org/2000/svg">
<rect x="0.5" width="30" height="30" rx="15" fill="#D9D9D9"/>
<path d="M24.0217 9.87734C23.4037 10.1483 22.742 10.3347 22.0447 10.4193C22.7562 9.99234 23.3002 9.31704 23.5596 8.51256C22.8922 8.90115 22.1539 9.18261 21.3688 9.34172C20.7429 8.67167 19.8481 8.25 18.8551 8.25C16.9515 8.25 15.4087 9.79227 15.4087 11.6932C15.4087 11.9668 15.4418 12.2293 15.4991 12.4782C12.6356 12.3443 10.0972 10.9685 8.39948 8.89012C8.10121 9.39633 7.9316 9.98446 7.9316 10.6246C7.9316 11.8224 8.54126 12.8726 9.46284 13.4901C8.89939 13.4739 8.36902 13.3179 7.9043 13.0611V13.1026C7.9043 14.773 9.09106 16.1656 10.6664 16.4828C10.3792 16.5589 10.0725 16.603 9.76111 16.603C9.54004 16.603 9.32894 16.5815 9.11837 16.5427C9.56157 17.9101 10.8302 18.9057 12.3426 18.9356C11.1668 19.8572 9.67657 20.4065 8.07076 20.4065C7.79717 20.4065 7.52411 20.3933 7.25 20.3603C8.78177 21.337 10.5897 21.9083 12.5427 21.9083C18.8792 21.9083 22.3419 16.6598 22.3419 12.1143C22.3419 11.9694 22.3419 11.8218 22.3308 11.6738C23.0067 11.1922 23.5916 10.582 24.0537 9.89047L24.0217 9.87734Z" fill="black"/>
</svg>
